Coordinates
version=1
nRows=10
nColumns=63
inDegrees=yes

Units are S.I. units (second, meters, Newtons, ...)
If the header above contains a line with 'inDegrees', this indicates whether rotational values are in degrees (yes) or radians (no).

endheader
time	pelvis_tilt	pelvis_list	pelvis_rotation	pelvis_tx	pelvis_ty	pelvis_tz	hip_flexion_r	hip_adduction_r	hip_rotation_r	knee_angle_r	knee_angle_r_beta	ankle_angle_r	subtalar_angle_r	mtp_angle_r	hip_flexion_l	hip_adduction_l	hip_rotation_l	knee_angle_l	knee_angle_l_beta	ankle_angle_l	subtalar_angle_l	mtp_angle_l	L5_S1_Flex_Ext	L5_S1_Lat_Bending	L5_S1_axial_rotation	L4_L5_Flex_Ext	L4_L5_Lat_Bending	L4_L5_axial_rotation	L3_L4_Flex_Ext	L3_L4_Lat_Bending	L3_L4_axial_rotation	L2_L3_Flex_Ext	L2_L3_Lat_Bending	L2_L3_axial_rotation	L1_L2_Flex_Ext	L1_L2_Lat_Bending	L1_L2_axial_rotation	L1_T12_Flex_Ext	L1_T12_Lat_Bending	L1_T12_axial_rotation	Abs_r3	Abs_r2	Abs_r1	Abs_t1	Abs_t2	neck_flexion	neck_bending	neck_rotation	arm_flex_r	arm_add_r	arm_rot_r	elbow_flex_r	pro_sup_r	wrist_flex_r	wrist_dev_r	arm_flex_l	arm_add_l	arm_rot_l	elbow_flex_l	pro_sup_l	wrist_flex_l	wrist_dev_l
0.000000	5.591885	-4.189971	91.302097	0.314507	1.051422	0.383476	-0.452231	-0.672730	-5.257300	8.607818	0.150235	33.308757	8.481647	0.000000	1.442024	-1.114069	-6.629215	9.446502	0.164873	38.695252	8.700628	0.000000	0.036070	0.339642	-0.201834	0.066986	0.451725	-0.214449	0.059260	0.825807	-0.214449	0.041225	0.825807	-0.176605	0.033495	0.692599	-0.163990	0.020611	0.526106	-0.151375	0.257647	3.842104	-1.122540	0.000000	0.000000	28.138770	6.063208	1.325693	5.399858	-13.615874	107.523445	11.508884	6.493515	-7.088232	-9.950523	4.256123	-8.712969	130.041144	3.814205	4.798373	-6.227001	-11.304979
0.016667	5.541559	-4.350781	91.714182	0.313618	1.051043	0.384366	-0.272405	-0.850936	-6.698295	8.676867	0.151440	33.771559	10.070870	0.000000	1.800629	-0.989547	-5.399826	9.868067	0.172230	38.035531	7.520863	0.000000	0.035538	0.338392	-0.253571	0.065998	0.450062	-0.269419	0.058385	0.822767	-0.269419	0.040616	0.822767	-0.221875	0.033001	0.690049	-0.206027	0.020306	0.524169	-0.190178	0.253844	3.827960	-1.410287	0.000000	0.000000	28.158662	6.041653	1.434982	5.485144	-13.626781	107.716948	11.532743	6.143243	-6.581226	-9.881096	4.293904	-8.554746	132.728440	3.152013	4.207010	-6.860956	-11.453303
0.033333	5.512272	-4.460397	91.990226	0.312974	1.050745	0.384977	-0.155516	-0.980931	-7.787067	8.718337	0.152164	34.178440	11.372229	0.000000	2.037812	-0.898907	-4.435458	10.164939	0.177412	37.519906	6.547618	0.000000	0.033918	0.338864	-0.285137	0.062989	0.450689	-0.302958	0.055724	0.823914	-0.302958	0.038765	0.823914	-0.249495	0.031496	0.691012	-0.231674	0.019381	0.524901	-0.213853	0.242273	3.833299	-1.585846	0.000000	0.000000	28.173277	6.042771	1.558979	5.542957	-13.636880	107.910859	11.546222	5.867756	-6.189584	-9.801765	4.314084	-8.423904	134.902565	2.615187	3.726738	-7.338866	-11.575632
0.050000	5.501072	-4.524064	92.142381	0.312552	1.050521	0.385333	-0.095040	-1.068207	-8.555835	8.735094	0.152456	34.532160	12.410349	0.000000	2.165367	-0.837925	-3.711771	10.348680	0.180619	37.133540	5.760906	0.000000	0.031306	0.340750	-0.298343	0.058139	0.453198	-0.316990	0.051433	0.828500	-0.316990	0.035780	0.828500	-0.261050	0.029071	0.694858	-0.242404	0.017888	0.527822	-0.223757	0.223618	3.854633	-1.659296	0.000000	0.000000	28.183178	6.062579	1.692387	5.576175	-13.645589	108.106627	11.549675	5.660060	-5.902852	-9.714399	4.318324	-8.318472	136.610383	2.192252	3.347432	-7.676687	-11.674223
0.066667	5.505005	-4.547024	92.182799	0.312334	1.050365	0.385463	-0.084451	-1.118253	-9.036818	8.730002	0.152367	34.835478	13.209857	0.000000	2.195089	-0.802379	-3.204425	10.430851	0.182053	36.861598	5.140735	0.000000	0.027799	0.343741	-0.295002	0.051626	0.457176	-0.313439	0.045671	0.835773	-0.313439	0.031772	0.835773	-0.258127	0.025814	0.700957	-0.239689	0.015884	0.532455	-0.221251	0.198566	3.888472	-1.640712	0.000000	0.000000	28.188928	6.097092	1.829912	5.587678	-13.652324	108.305697	11.543459	5.513166	-5.710576	-9.620863	4.308283	-8.236480	137.898757	1.871732	3.058965	-7.890375	-11.751332
0.083333	5.521117	-4.534521	92.123630	0.312299	1.050270	0.385391	-0.117225	-1.136559	-9.262233	8.705924	0.151947	35.091154	13.795376	0.000000	2.138773	-0.788045	-2.889083	10.423013	0.181916	36.689245	4.667116	0.000000	0.023492	0.347530	-0.276925	0.043627	0.462215	-0.294233	0.038595	0.844984	-0.294233	0.026849	0.844984	-0.242309	0.021815	0.708683	-0.225001	0.013423	0.538324	-0.207694	0.167803	3.931327	-1.540173	0.000000	0.000000	28.191089	6.142328	1.966259	5.580345	-13.656503	108.509519	11.527931	5.420080	-5.602302	-9.523024	4.285619	-8.175957	138.814553	1.642152	2.851213	-7.995887	-11.809217
0.100000	5.546457	-4.491800	91.977026	0.312427	1.050231	0.385145	-0.186838	-1.128615	-9.264299	8.665726	0.151245	35.301948	14.191534	0.000000	2.008214	-0.790699	-2.741404	10.336728	0.180410	36.601644	4.320059	0.000000	0.018482	0.351807	-0.245924	0.034322	0.467903	-0.261294	0.030364	0.855383	-0.261294	0.021123	0.855383	-0.215184	0.017162	0.717404	-0.199813	0.010560	0.544949	-0.184443	0.132013	3.979709	-1.367757	0.000000	0.000000	28.190224	6.194302	2.096132	5.557054	-13.657543	108.719539	11.503446	5.373812	-5.567575	-9.422750	4.251992	-8.134932	139.404634	1.492037	2.714049	-8.009180	-11.850133
0.116667	5.578070	-4.424103	91.755138	0.312698	1.050240	0.384750	-0.286766	-1.099909	-9.075234	8.612270	0.150312	35.470620	14.422954	0.000000	1.815207	-0.806117	-2.737051	10.183558	0.177737	36.583960	4.079573	0.000000	0.012863	0.356264	-0.203812	0.023889	0.473831	-0.216550	0.021133	0.866220	-0.216550	0.014702	0.866220	-0.178335	0.011945	0.726493	-0.165597	0.007350	0.551853	-0.152859	0.091883	4.030129	-1.133540	0.000000	0.000000	28.186896	6.249032	2.214238	5.520686	-13.654860	108.937204	11.470361	5.367369	-5.595942	-9.321906	4.209061	-8.111435	139.715865	1.409911	2.637348	-7.946210	-11.876337
0.133333	5.613004	-4.336674	91.470117	0.313091	1.050292	0.384234	-0.410483	-1.055933	-8.727258	8.548423	0.149198	35.599930	14.514262	0.000000	1.571547	-0.830076	-2.851683	9.975065	0.174098	36.621358	3.925668	0.000000	0.006734	0.360593	-0.152400	0.012505	0.479588	-0.161925	0.011063	0.876745	-0.161925	0.007696	0.876745	-0.133350	0.006253	0.735321	-0.123825	0.003848	0.558558	-0.114300	0.048098	4.079098	-0.847601	0.000000	0.000000	28.181668	6.302534	2.315280	5.474119	-13.647874	109.163963	11.429031	5.393759	-5.676947	-9.222360	4.158485	-8.103495	139.795110	1.384299	2.610984	-7.822933	-11.890086
0.150000	5.648306	-4.234756	91.134115	0.313585	1.050379	0.383623	-0.551466	-1.002175	-8.252588	8.477048	0.147952	35.692636	14.490083	0.000000	1.289029	-0.858353	-3.060962	9.722809	0.169695	36.699000	3.838356	0.000000	0.000188	0.364485	-0.093500	0.000349	0.484765	-0.099344	0.000309	0.886209	-0.099344	0.000215	0.886209	-0.081812	0.000175	0.743258	-0.075969	0.000107	0.564587	-0.070125	0.001344	4.123127	-0.520018	0.000000	0.000000	28.175102	6.350824	2.393963	5.420233	-13.635999	109.401263	11.379813	5.445991	-5.800136	-9.125979	4.101924	-8.109142	139.689233	1.403725	2.624830	-7.655306	-11.893636
